<svg xmlns="http://www.w3.org/2000/svg" viewBox="-82.2 -28.0 164.4 128.0" width="164" height="128"><style>*{vector-effect:non-scaling-stroke}text{font-family:'DM Mono',ui-monospace,monospace}</style><g data-k="base" stroke="#1d1a17" stroke-width="1" stroke-linejoin="round"><polygon class="f-l" fill="#f3ede4" points="-76.2,50.0 0.0,94.0 0.0,86.0 -76.2,42.0"/><polygon class="f-r" fill="#e8e1d7" points="76.2,50.0 0.0,94.0 0.0,86.0 76.2,42.0"/><polygon class="f-t" fill="#ffffff" points="0.0,-2.0 76.2,42.0 0.0,86.0 -76.2,42.0"/></g><g data-k="sand" stroke="#1d1a17" stroke-width="1" stroke-linejoin="round"><polygon class="f-l" fill="#e8e1d7" points="-13.9,40.0 0.0,48.0 0.0,46.0 -13.9,38.0"/><polygon class="f-r" fill="#dcd3c6" points="10.4,42.0 0.0,48.0 0.0,46.0 10.4,40.0"/><polygon class="f-t" fill="#f3ede4" points="-3.5,32.0 10.4,40.0 0.0,46.0 -13.9,38.0"/></g><g data-k="sand" stroke="#1d1a17" stroke-width="1" stroke-linejoin="round"><polygon class="f-l" fill="#e8e1d7" points="-5.2,39.0 -1.7,41.0 -1.7,31.0 -5.2,29.0"/><polygon class="f-r" fill="#dcd3c6" points="1.7,39.0 -1.7,41.0 -1.7,31.0 1.7,29.0"/><polygon class="f-t" fill="#f3ede4" points="-1.7,27.0 1.7,29.0 -1.7,31.0 -5.2,29.0"/></g><g data-k="screen" stroke="#1d1a17" stroke-width="1" stroke-linejoin="round"><polygon class="f-l" fill="#2d2925" points="-23.4,15.5 21.7,41.5 21.7,5.5 -23.4,-20.5"/><polygon class="f-r" fill="#3d3833" points="24.2,40.0 21.7,41.5 21.7,5.5 24.2,4.0"/><polygon class="f-t" fill="#1d1a17" points="-20.8,-22.0 24.2,4.0 21.7,5.5 -23.4,-20.5"/><polygon points="-21.7,14.5 19.9,38.5 19.9,6.5 -21.7,-17.5" fill="#ffffff" stroke="#e8e1d7" stroke-width="0.5"/><line x1="-11.3" y1="18.5" x2="-11.3" y2="-9.5" stroke="#e8e1d7" stroke-width="0.6" stroke-linecap="round"/><line x1="-0.9" y1="24.5" x2="-0.9" y2="-3.5" stroke="#e8e1d7" stroke-width="0.6" stroke-linecap="round"/><line x1="9.5" y1="30.5" x2="9.5" y2="2.5" stroke="#e8e1d7" stroke-width="0.6" stroke-linecap="round"/><polygon points="-10.4,1.0 -1.7,6.0 -1.7,-3.0 -10.4,-8.0" fill="#c0392b" stroke="none" stroke-width="0.8"/><polygon points="0.0,15.0 8.7,20.0 8.7,8.0 0.0,3.0" fill="#e07b4a" stroke="none" stroke-width="0.8"/><polygon points="10.4,15.0 19.1,20.0 19.1,10.0 10.4,5.0" fill="#f3ede4" stroke="#1d1a17" stroke-width="0.4"/><polygon points="-10.4,18.0 -1.7,23.0 -1.7,16.0 -10.4,11.0" fill="#f3ede4" stroke="#1d1a17" stroke-width="0.4"/><polygon points="10.4,30.0 19.1,35.0 19.1,27.0 10.4,22.0" fill="#c0392b" stroke="none" stroke-width="0.8"/><line x1="-19.9" y1="-11.5" x2="-13.9" y2="-8.0" stroke="#6b645c" stroke-width="0.8" stroke-linecap="round"/><line x1="-19.9" y1="-4.5" x2="-13.9" y2="-1.0" stroke="#6b645c" stroke-width="0.8" stroke-linecap="round"/><line x1="-19.9" y1="2.5" x2="-13.9" y2="6.0" stroke="#6b645c" stroke-width="0.8" stroke-linecap="round"/><line x1="-19.9" y1="9.5" x2="-13.9" y2="13.0" stroke="#6b645c" stroke-width="0.8" stroke-linecap="round"/></g></svg>
