<svg xmlns="http://www.w3.org/2000/svg" viewBox="-82.2 -30.0 164.4 130.0" width="164" height="130"><style>*{vector-effect:non-scaling-stroke}text{font-family:'DM Mono',ui-monospace,monospace}</style><g data-k="base" stroke="#1d1a17" stroke-width="1" stroke-linejoin="round"><polygon class="f-l" fill="#f3ede4" points="-76.2,50.0 0.0,94.0 0.0,86.0 -76.2,42.0"/><polygon class="f-r" fill="#e8e1d7" points="76.2,50.0 0.0,94.0 0.0,86.0 76.2,42.0"/><polygon class="f-t" fill="#ffffff" points="0.0,-2.0 76.2,42.0 0.0,86.0 -76.2,42.0"/></g><g data-k="sand" stroke="#1d1a17" stroke-width="1" stroke-linejoin="round"><polygon class="f-l" fill="#e8e1d7" points="-20.8,30.0 -6.9,38.0 -6.9,36.0 -20.8,28.0"/><polygon class="f-r" fill="#dcd3c6" points="3.5,32.0 -6.9,38.0 -6.9,36.0 3.5,30.0"/><polygon class="f-t" fill="#f3ede4" points="-10.4,22.0 3.5,30.0 -6.9,36.0 -20.8,28.0"/></g><g data-k="sand" stroke="#1d1a17" stroke-width="1" stroke-linejoin="round"><polygon class="f-l" fill="#e8e1d7" points="-12.1,29.0 -8.7,31.0 -8.7,21.0 -12.1,19.0"/><polygon class="f-r" fill="#dcd3c6" points="-5.2,29.0 -8.7,31.0 -8.7,21.0 -5.2,19.0"/><polygon class="f-t" fill="#f3ede4" points="-8.7,17.0 -5.2,19.0 -8.7,21.0 -12.1,19.0"/></g><g data-k="furn" stroke="#1d1a17" stroke-width="1" stroke-linejoin="round"><polygon class="f-l" fill="#f3ede4" points="-26.8,7.5 11.3,29.5 11.3,-0.5 -26.8,-22.5"/><polygon class="f-r" fill="#e8e1d7" points="13.9,28.0 11.3,29.5 11.3,-0.5 13.9,-2.0"/><polygon class="f-t" fill="#ffffff" points="-24.2,-24.0 13.9,-2.0 11.3,-0.5 -26.8,-22.5"/><polygon points="-25.1,6.5 9.5,26.5 9.5,0.5 -25.1,-19.5" fill="#ffffff" stroke="#e8e1d7" stroke-width="0.5"/><line x1="-22.5" y1="-13.0" x2="-6.1" y2="-3.5" stroke="#6b645c" stroke-width="0.9" stroke-linecap="round"/><line x1="0.9" y1="0.5" x2="6.9" y2="4.0" stroke="#1d1a17" stroke-width="0.9" stroke-linecap="round"/><line x1="-22.5" y1="-9.0" x2="-6.1" y2="0.5" stroke="#6b645c" stroke-width="0.9" stroke-linecap="round"/><line x1="0.9" y1="4.5" x2="6.9" y2="8.0" stroke="#1d1a17" stroke-width="0.9" stroke-linecap="round"/><line x1="-22.5" y1="-5.0" x2="-6.1" y2="4.5" stroke="#6b645c" stroke-width="0.9" stroke-linecap="round"/><line x1="0.9" y1="8.5" x2="6.9" y2="12.0" stroke="#1d1a17" stroke-width="0.9" stroke-linecap="round"/><polygon points="-22.5,6.0 6.9,23.0 6.9,17.0 -22.5,0.0" fill="#c0392b" stroke="none" stroke-width="0.8"/><text transform="matrix(0.8660,0.5,0,1,-26.8,7.5)" x="13" y="-5.6" font-family="DM Mono, monospace" font-size="4" font-weight="500" fill="#ffffff" stroke="none">$25.45</text></g><g data-k="furn" stroke="#1d1a17" stroke-width="1" stroke-linejoin="round"><polygon class="f-l" fill="#f3ede4" points="-16.3,59.4 1.7,69.8 1.7,60.2 -16.3,49.8"/><polygon class="f-r" fill="#e8e1d7" points="33.6,51.4 1.7,69.8 1.7,60.2 33.6,41.8"/><polygon class="f-t" fill="#ffffff" points="15.6,31.4 33.6,41.8 1.7,60.2 -16.3,49.8"/><polygon points="15.6,33.8 29.4,41.8 19.7,47.4 5.9,39.4" fill="#2a2622" stroke="none" stroke-width="0.8"/><polygon points="12.1,37.4 15.2,39.2 11.8,41.2 8.7,39.4" fill="#4a443e" stroke="none" stroke-width="0.8"/><polygon points="16.6,40.0 19.7,41.8 16.3,43.8 13.2,42.0" fill="#c0392b" stroke="none" stroke-width="0.8"/><polygon points="21.1,42.6 24.2,44.4 20.8,46.4 17.7,44.6" fill="#4a443e" stroke="none" stroke-width="0.8"/><polygon points="3.8,41.4 6.9,43.2 4.5,44.6 1.4,42.8" fill="#ffffff" stroke="#1d1a17" stroke-width="0.4"/><polygon points="0.0,43.6 3.1,45.4 0.7,46.8 -2.4,45.0" fill="#ffffff" stroke="#1d1a17" stroke-width="0.4"/><polygon points="-3.8,45.8 -0.7,47.6 -3.1,49.0 -6.2,47.2" fill="#ffffff" stroke="#1d1a17" stroke-width="0.4"/><polygon points="-7.6,48.0 -4.5,49.8 -6.9,51.2 -10.0,49.4" fill="#ffffff" stroke="#1d1a17" stroke-width="0.4"/><polygon points="8.3,44.0 11.4,45.8 9.0,47.2 5.9,45.4" fill="#ffffff" stroke="#1d1a17" stroke-width="0.4"/><polygon points="4.5,46.2 7.6,48.0 5.2,49.4 2.1,47.6" fill="#ffffff" stroke="#1d1a17" stroke-width="0.4"/><polygon points="0.7,48.4 3.8,50.2 1.4,51.6 -1.7,49.8" fill="#ffffff" stroke="#1d1a17" stroke-width="0.4"/><polygon points="-3.1,50.6 0.0,52.4 -2.4,53.8 -5.5,52.0" fill="#ffffff" stroke="#1d1a17" stroke-width="0.4"/><polygon points="12.8,46.6 15.9,48.4 13.5,49.8 10.4,48.0" fill="#ffffff" stroke="#1d1a17" stroke-width="0.4"/><polygon points="9.0,48.8 12.1,50.6 9.7,52.0 6.6,50.2" fill="#ffffff" stroke="#1d1a17" stroke-width="0.4"/><polygon points="5.2,51.0 8.3,52.8 5.9,54.2 2.8,52.4" fill="#ffffff" stroke="#1d1a17" stroke-width="0.4"/><polygon points="1.4,53.2 4.5,55.0 2.1,56.4 -1.0,54.6" fill="#ffffff" stroke="#1d1a17" stroke-width="0.4"/></g><g data-k="accent" stroke="#1d1a17" stroke-width="1" stroke-linejoin="round"><polygon class="f-l" fill="#a8291b" points="17.7,34.2 28.8,40.6 28.8,39.1 17.7,32.7"/><polygon class="f-r" fill="#8f2a1f" points="35.0,37.0 28.8,40.6 28.8,39.1 35.0,35.5"/><polygon class="f-t" fill="#c0392b" points="23.9,29.1 35.0,35.5 28.8,39.1 17.7,32.7"/></g></svg>
