<svg xmlns="http://www.w3.org/2000/svg" viewBox="-82.2 -69.0 164.4 169.0" width="164" height="169"><style>*{vector-effect:non-scaling-stroke}text{font-family:'DM Mono',ui-monospace,monospace}</style><g data-k="base" stroke="#1d1a17" stroke-width="1" stroke-linejoin="round"><polygon class="f-l" fill="#f3ede4" points="-76.2,50.0 0.0,94.0 0.0,86.0 -76.2,42.0"/><polygon class="f-r" fill="#e8e1d7" points="76.2,50.0 0.0,94.0 0.0,86.0 76.2,42.0"/><polygon class="f-t" fill="#ffffff" points="0.0,-2.0 76.2,42.0 0.0,86.0 -76.2,42.0"/></g><g data-k="screen" stroke="#1d1a17" stroke-width="1" stroke-linejoin="round"><polygon class="f-l" fill="#2d2925" points="-24.2,42.0 0.0,56.0 0.0,53.0 -24.2,39.0"/><polygon class="f-r" fill="#3d3833" points="13.9,48.0 0.0,56.0 0.0,53.0 13.9,45.0"/><polygon class="f-t" fill="#1d1a17" points="-10.4,31.0 13.9,45.0 0.0,53.0 -24.2,39.0"/></g><g data-k="screen" stroke="#1d1a17" stroke-width="1" stroke-linejoin="round"><polygon class="f-l" fill="#2d2925" points="-37.2,-7.5 35.5,34.5 35.5,-17.5 -37.2,-59.5"/><polygon class="f-r" fill="#3d3833" points="41.6,31.0 35.5,34.5 35.5,-17.5 41.6,-21.0"/><polygon class="f-t" fill="#1d1a17" points="-31.2,-63.0 41.6,-21.0 35.5,-17.5 -37.2,-59.5"/><polygon points="-34.6,-9.0 32.9,30.0 32.9,-16.0 -34.6,-55.0" fill="#2a2622" stroke="none" stroke-width="0.8"/><text transform="matrix(0.8660,0.5,0,1,-37.2,-7.5)" x="6" y="-43.5" font-family="DM Mono, monospace" font-size="3.4" font-weight="500" fill="#b8ada0" stroke="none">#041 · #042 · #043 · #044</text><polygon points="-32.0,-12.5 -18.2,-4.5 -18.2,-36.5 -32.0,-44.5" fill="#ffffff" stroke="none" stroke-width="0.8"/><polygon points="-32.0,-39.5 -18.2,-31.5 -18.2,-36.5 -32.0,-44.5" fill="#c0392b" stroke="none" stroke-width="0.8"/><line x1="-29.9" y1="-33.2" x2="-19.9" y2="-27.5" stroke="#6b645c" stroke-width="0.9" stroke-linecap="round"/><line x1="-29.9" y1="-29.2" x2="-21.7" y2="-24.5" stroke="#6b645c" stroke-width="0.9" stroke-linecap="round"/><line x1="-29.9" y1="-25.2" x2="-19.9" y2="-19.5" stroke="#6b645c" stroke-width="0.9" stroke-linecap="round"/><polygon points="-16.5,-9.5 -2.6,-1.5 -2.6,-27.5 -16.5,-35.5" fill="#ffffff" stroke="none" stroke-width="0.8"/><polygon points="-16.5,-30.5 -2.6,-22.5 -2.6,-27.5 -16.5,-35.5" fill="#f3ede4" stroke="none" stroke-width="0.8"/><line x1="-14.3" y1="-24.2" x2="-4.3" y2="-18.5" stroke="#6b645c" stroke-width="0.9" stroke-linecap="round"/><line x1="-14.3" y1="-20.2" x2="-6.1" y2="-15.5" stroke="#6b645c" stroke-width="0.9" stroke-linecap="round"/><line x1="-14.3" y1="-16.2" x2="-4.3" y2="-10.5" stroke="#6b645c" stroke-width="0.9" stroke-linecap="round"/><polygon points="-0.9,-4.5 13.0,3.5 13.0,-18.5 -0.9,-26.5" fill="#ffffff" stroke="none" stroke-width="0.8"/><polygon points="-0.9,-21.5 13.0,-13.5 13.0,-18.5 -0.9,-26.5" fill="#e07b4a" stroke="none" stroke-width="0.8"/><line x1="1.3" y1="-15.2" x2="11.3" y2="-9.5" stroke="#6b645c" stroke-width="0.9" stroke-linecap="round"/><line x1="1.3" y1="-11.2" x2="9.5" y2="-6.5" stroke="#6b645c" stroke-width="0.9" stroke-linecap="round"/><line x1="1.3" y1="-7.2" x2="11.3" y2="-1.5" stroke="#6b645c" stroke-width="0.9" stroke-linecap="round"/><polygon points="14.7,-1.5 28.6,6.5 28.6,-9.5 14.7,-17.5" fill="#ffffff" stroke="none" stroke-width="0.8"/><polygon points="14.7,-12.5 28.6,-4.5 28.6,-9.5 14.7,-17.5" fill="#f3ede4" stroke="none" stroke-width="0.8"/><line x1="16.9" y1="-6.2" x2="26.8" y2="-0.5" stroke="#6b645c" stroke-width="0.9" stroke-linecap="round"/></g><g data-k="screen" stroke="#1d1a17" stroke-width="1" stroke-linejoin="round"><polygon class="f-l" fill="#2d2925" points="-9.5,41.5 -4.3,44.5 -4.3,18.5 -9.5,15.5"/><polygon class="f-r" fill="#3d3833" points="0.9,41.5 -4.3,44.5 -4.3,18.5 0.9,15.5"/><polygon class="f-t" fill="#1d1a17" points="-4.3,12.5 0.9,15.5 -4.3,18.5 -9.5,15.5"/></g><g data-k="screen" stroke="#1d1a17" stroke-width="1" stroke-linejoin="round"><polygon class="f-l" fill="#2d2925" points="-43.3,43.0 -1.7,67.0 -1.7,64.0 -43.3,40.0"/><polygon class="f-r" fill="#3d3833" points="6.9,62.0 -1.7,67.0 -1.7,64.0 6.9,59.0"/><polygon class="f-t" fill="#1d1a17" points="-34.6,35.0 6.9,59.0 -1.7,64.0 -43.3,40.0"/><polygon points="-33.8,38.5 -28.6,41.5 -32.0,43.5 -37.2,40.5" fill="#ffffff" stroke="#1d1a17" stroke-width="0.5"/><polygon points="-26.8,42.5 -21.7,45.5 -25.1,47.5 -30.3,44.5" fill="#ffffff" stroke="#1d1a17" stroke-width="0.5"/><polygon points="-19.9,46.5 -14.7,49.5 -18.2,51.5 -23.4,48.5" fill="#ffffff" stroke="#1d1a17" stroke-width="0.5"/><polygon points="-13.0,50.5 -7.8,53.5 -11.3,55.5 -16.5,52.5" fill="#ffffff" stroke="#1d1a17" stroke-width="0.5"/><polygon points="-6.1,54.5 -0.9,57.5 -4.3,59.5 -9.5,56.5" fill="#c0392b" stroke="#1d1a17" stroke-width="0.5"/></g></svg>
