<svg xmlns="http://www.w3.org/2000/svg" viewBox="-101.3 -54.0 211.2 175.0" width="211" height="175"><style>*{vector-effect:non-scaling-stroke}text{font-family:'DM Mono',ui-monospace,monospace}</style><g data-k="furn" stroke="#1d1a17" stroke-width="1" stroke-linejoin="round"><polygon class="f-l" fill="#f3ede4" points="7.8,-32.5 18.2,-26.5 18.2,-31.5 7.8,-37.5"/><polygon class="f-r" fill="#e8e1d7" points="26.8,-31.5 18.2,-26.5 18.2,-31.5 26.8,-36.5"/><polygon class="f-t" fill="#ffffff" points="16.5,-42.5 26.8,-36.5 18.2,-31.5 7.8,-37.5"/></g><g data-k="base" stroke="#1d1a17" stroke-width="1" stroke-linejoin="round"><polygon class="f-l" fill="#f3ede4" points="-95.3,55.0 8.7,115.0 8.7,107.0 -95.3,47.0"/><polygon class="f-r" fill="#e8e1d7" points="103.9,60.0 8.7,115.0 8.7,107.0 103.9,52.0"/><polygon class="f-t" fill="#ffffff" points="0.0,-8.0 103.9,52.0 8.7,107.0 -95.3,47.0"/></g><g data-k="furn" stroke="#1d1a17" stroke-width="1" stroke-linejoin="round"><polygon class="f-l" fill="#f3ede4" points="-31.2,30.0 34.6,68.0 34.6,38.0 -31.2,0.0"/><polygon class="f-r" fill="#e8e1d7" points="64.1,51.0 34.6,68.0 34.6,38.0 64.1,21.0"/><polygon class="f-t" fill="#ffffff" points="-1.7,-17.0 64.1,21.0 34.6,38.0 -31.2,0.0"/><line x1="-27.7" y1="10.0" x2="31.2" y2="44.0" stroke="#e8e1d7" stroke-width="0.8" stroke-linecap="round"/><polygon points="-5.2,35.0 8.7,43.0 8.7,33.0 -5.2,25.0" fill="#f3ede4" stroke="#1d1a17" stroke-width="0.6"/></g><g data-k="furn" stroke="#1d1a17" stroke-width="1" stroke-linejoin="round"><polygon class="f-l" fill="#f3ede4" points="-32.9,0.0 34.6,39.0 34.6,36.0 -32.9,-3.0"/><polygon class="f-r" fill="#e8e1d7" points="65.8,21.0 34.6,39.0 34.6,36.0 65.8,18.0"/><polygon class="f-t" fill="#ffffff" points="-1.7,-21.0 65.8,18.0 34.6,36.0 -32.9,-3.0"/><polygon points="10.4,2.0 24.2,10.0 15.6,15.0 1.7,7.0" fill="#f3ede4" stroke="#1d1a17" stroke-width="0.6"/></g><g data-k="sand" stroke="#1d1a17" stroke-width="1" stroke-linejoin="round"><polygon class="f-l" fill="#e8e1d7" points="-5.2,-10.0 1.7,-6.0 1.7,-9.0 -5.2,-13.0"/><polygon class="f-r" fill="#dcd3c6" points="8.7,-10.0 1.7,-6.0 1.7,-9.0 8.7,-13.0"/><polygon class="f-t" fill="#f3ede4" points="1.7,-17.0 8.7,-13.0 1.7,-9.0 -5.2,-13.0"/></g><g data-k="sand" stroke="#1d1a17" stroke-width="1" stroke-linejoin="round"><polygon class="f-l" fill="#e8e1d7" points="0.0,-13.0 1.7,-12.0 1.7,-46.0 0.0,-47.0"/><polygon class="f-r" fill="#dcd3c6" points="3.5,-13.0 1.7,-12.0 1.7,-46.0 3.5,-47.0"/><polygon class="f-t" fill="#f3ede4" points="1.7,-48.0 3.5,-47.0 1.7,-46.0 0.0,-47.0"/></g><g data-k="sand" stroke="#1d1a17" stroke-width="1" stroke-linejoin="round"><polygon class="f-l" fill="#e8e1d7" points="0.0,-45.0 15.6,-36.0 15.6,-38.0 0.0,-47.0"/><polygon class="f-r" fill="#dcd3c6" points="17.3,-37.0 15.6,-36.0 15.6,-38.0 17.3,-39.0"/><polygon class="f-t" fill="#f3ede4" points="1.7,-48.0 17.3,-39.0 15.6,-38.0 0.0,-47.0"/></g><g data-k="furn" stroke="#1d1a17" stroke-width="1" stroke-linejoin="round"><polygon class="f-l" fill="#f3ede4" points="1.7,12.0 10.4,17.0 10.4,12.0 1.7,7.0"/><polygon class="f-r" fill="#e8e1d7" points="20.8,11.0 10.4,17.0 10.4,12.0 20.8,6.0"/><polygon class="f-t" fill="#ffffff" points="12.1,1.0 20.8,6.0 10.4,12.0 1.7,7.0"/></g><g data-k="accent" stroke="#1d1a17" stroke-width="1"><path class="f-l" fill="#a8291b" d="M38.9 6.0V13.0A2.7 1.6 0 0 0 44.3 13.0V6.0Z"/><ellipse class="f-t" fill="#c0392b" cx="41.6" cy="6.0" rx="2.7" ry="1.6"/></g><g data-k="amber" stroke="#1d1a17" stroke-width="1"><path class="f-l" fill="#c9683b" d="M44.1 9.0V16.0A2.7 1.6 0 0 0 49.5 16.0V9.0Z"/><ellipse class="f-t" fill="#e07b4a" cx="46.8" cy="9.0" rx="2.7" ry="1.6"/></g><g data-k="screen" stroke="#1d1a17" stroke-width="1"><path class="f-l" fill="#2d2925" d="M32.8 9.5V16.5A2.7 1.6 0 0 0 38.2 16.5V9.5Z"/><ellipse class="f-t" fill="#1d1a17" cx="35.5" cy="9.5" rx="2.7" ry="1.6"/></g><g data-k="accent" stroke="#1d1a17" stroke-width="1"><path class="f-l" fill="#a8291b" d="M38.0 12.5V19.5A2.7 1.6 0 0 0 43.4 19.5V12.5Z"/><ellipse class="f-t" fill="#c0392b" cx="40.7" cy="12.5" rx="2.7" ry="1.6"/></g><g data-k="sand" stroke="#1d1a17" stroke-width="1" stroke-linejoin="round"><polygon class="f-l" fill="#e8e1d7" points="-52.0,62.0 -20.8,80.0 -20.8,62.0 -52.0,44.0"/><polygon class="f-r" fill="#dcd3c6" points="10.4,62.0 -20.8,80.0 -20.8,62.0 10.4,44.0"/><polygon class="f-t" fill="#f3ede4" points="-20.8,26.0 10.4,44.0 -20.8,62.0 -52.0,44.0"/></g><g data-k="furn" stroke="#1d1a17" stroke-width="1" stroke-linejoin="round"><polygon class="f-l" fill="#f3ede4" points="-46.8,59.0 -42.4,61.5 -42.4,35.5 -46.8,33.0"/><polygon class="f-r" fill="#e8e1d7" points="-16.5,46.5 -42.4,61.5 -42.4,35.5 -16.5,20.5"/><polygon class="f-t" fill="#ffffff" points="-20.8,18.0 -16.5,20.5 -42.4,35.5 -46.8,33.0"/></g><g data-k="furn" stroke="#1d1a17" stroke-width="1" stroke-linejoin="round"><polygon class="f-l" fill="#f3ede4" points="-19.9,74.5 -15.6,77.0 -15.6,51.0 -19.9,48.5"/><polygon class="f-r" fill="#e8e1d7" points="10.4,62.0 -15.6,77.0 -15.6,51.0 10.4,36.0"/><polygon class="f-t" fill="#ffffff" points="6.1,33.5 10.4,36.0 -15.6,51.0 -19.9,48.5"/></g><g data-k="furn" stroke="#1d1a17" stroke-width="1" stroke-linejoin="round"><polygon class="f-l" fill="#f3ede4" points="-52.0,62.0 -20.8,80.0 -20.8,44.0 -52.0,26.0"/><polygon class="f-r" fill="#e8e1d7" points="-13.9,76.0 -20.8,80.0 -20.8,44.0 -13.9,40.0"/><polygon class="f-t" fill="#ffffff" points="-45.0,22.0 -13.9,40.0 -20.8,44.0 -52.0,26.0"/></g><g data-k="furn" stroke="#1d1a17" stroke-width="1" stroke-linejoin="round"><polygon class="f-l" fill="#f3ede4" points="-45.0,43.0 -19.1,58.0 -19.1,53.0 -45.0,38.0"/><polygon class="f-r" fill="#e8e1d7" points="5.2,44.0 -19.1,58.0 -19.1,53.0 5.2,39.0"/><polygon class="f-t" fill="#ffffff" points="-20.8,24.0 5.2,39.0 -19.1,53.0 -45.0,38.0"/></g></svg>
